<svg viewBox="0 0 640 400" data-background-color="#ffffff" preserveAspectRatio="xMidYMid meet" height="400" width="640" xmlns="http://www.w3.org/2000/svg" xmlns:xlink="http://www.w3.org/1999/xlink"><rect width="640" height="400" x="0" y="0" opacity="1" fill="#ffffff" data-fill-palette-color="background" id="background"></rect><g id="tight-bounds" transform="matrix(1,0,0,1,148.57422074112307,28.57422074112307)"><svg viewBox="0 0 342.85155851775386 342.85155851775386" height="342.85155851775386" width="342.85155851775386"><g><svg></svg></g><g><svg viewBox="0 0 342.85155851775386 342.85155851775386" height="342.85155851775386" width="342.85155851775386"><g><path d="M0 171.426c0-94.676 76.75-171.426 171.426-171.426 94.676 0 171.426 76.75 171.426 171.426 0 94.676-76.75 171.426-171.426 171.426-94.676 0-171.426-76.75-171.426-171.426zM171.426 339.068c92.586 0 167.642-75.056 167.642-167.642 0-92.586-75.056-167.642-167.642-167.642-92.586 0-167.642 75.056-167.642 167.642 0 92.586 75.056 167.642 167.642 167.642z" data-fill-palette-color="tertiary" fill="#0a8f85" stroke="transparent"></path><ellipse rx="164.56874808852186" ry="164.56874808852186" cx="171.42577925887693" cy="171.42577925887693" fill="#0a8f85" stroke="transparent" stroke-width="0" fill-opacity="1" data-fill-palette-color="tertiary"></ellipse></g><g transform="matrix(1,0,0,1,64.84655864529837,80.09809493220416)"><svg viewBox="0 0 213.1584412271571 182.65536865334553" height="182.65536865334553" width="213.1584412271571"><g><svg viewBox="0 0 213.1584412271571 182.65536865334553" height="182.65536865334553" width="213.1584412271571"><g><svg viewBox="0 0 213.1584412271571 182.65536865334553" height="182.65536865334553" width="213.1584412271571"><g transform="matrix(1,0,0,1,0,110.13203825847265)"><svg viewBox="0 0 213.1584412271571 72.52333039487289" height="72.52333039487289" width="213.1584412271571"><g id="textblocktransform"><svg viewBox="0 0 213.1584412271571 72.52333039487289" height="72.52333039487289" width="213.1584412271571" id="textblock"><g><svg viewBox="0 0 213.1584412271571 41.95596186295219" height="41.95596186295219" width="213.1584412271571"><g transform="matrix(1,0,0,1,0,0)"><svg width="213.1584412271571" viewBox="2.369999885559082 -26.270000457763672 187.90000915527344 36.99000549316406" height="41.95596186295219" data-palette-color="#ffffff"><path d="M16.36-25.39L18.6-25.39Q19.65-25.39 20.45-25.42 21.24-25.44 21.97-25.52 22.71-25.61 23.45-25.78 24.19-25.95 25.2-26.27L25.2-26.27Q25.51-25.34 25.82-24.51 26.12-23.68 26.44-22.8L26.44-22.8Q25.66-22.51 25-22.34 24.34-22.17 23.69-22.06 23.05-21.95 22.4-21.91 21.75-21.88 21.02-21.85L21.02-21.85Q21.7-20.75 22.07-19.38 22.44-18.02 22.44-16.41L22.44-16.41Q22.44-14.06 21.73-12.32 21.02-10.57 19.7-9.35L19.7-9.35Q18.38-8.13 16.54-7.51 14.7-6.88 12.4-6.88L12.4-6.88Q11.23-6.88 10.18-7.02 9.13-7.15 8.18-7.5L8.18-7.5Q7.96-6.91 7.8-6.3 7.64-5.69 7.65-5.14 7.67-4.59 7.86-4.14 8.06-3.69 8.54-3.42L8.54-3.42Q8.79-3.27 9.06-3.19 9.33-3.1 9.7-3.04 10.08-2.98 10.62-2.94 11.16-2.91 11.91-2.91L11.91-2.91Q12.65-2.88 13.64-2.88 14.62-2.88 15.94-2.88L15.94-2.88Q19.75-2.88 21.7-1.28 23.66 0.32 23.66 3.69L23.66 3.69Q23.66 5.05 23.22 6.12 22.78 7.18 22.01 7.96 21.24 8.74 20.19 9.27 19.14 9.79 17.92 10.12 16.7 10.45 15.37 10.58 14.04 10.72 12.7 10.72L12.7 10.72Q11.35 10.72 10 10.57 8.64 10.42 7.35 10.21L7.35 10.21Q6.05 9.99 4.92 9.7 3.78 9.42 2.91 9.16L2.91 9.16Q3.25 8.33 3.67 7.5 4.1 6.67 4.59 5.93L4.59 5.93Q6.13 6.37 8.25 6.79 10.38 7.2 12.96 7.2L12.96 7.2Q14.14 7.2 15.27 7.06 16.41 6.91 17.32 6.51 18.24 6.1 18.8 5.43 19.36 4.76 19.36 3.69L19.36 3.69Q19.36 2.56 18.96 1.95 18.55 1.34 17.87 1.05 17.19 0.76 16.26 0.71 15.33 0.66 14.31 0.66L14.31 0.66 11.11 0.66Q9.67 0.66 8.4 0.44 7.13 0.22 6.18-0.31 5.22-0.83 4.68-1.68 4.13-2.54 4.13-3.78L4.13-3.78Q4.13-4.98 4.57-6.26 5-7.54 5.71-8.86L5.71-8.86Q4.1-10.03 3.23-11.96 2.37-13.89 2.37-16.41L2.37-16.41Q2.37-18.7 3.09-20.47 3.81-22.24 5.13-23.49L5.13-23.49Q6.45-24.73 8.28-25.34 10.11-25.95 12.4-25.95L12.4-25.95Q14.55-25.95 16.36-25.39L16.36-25.39ZM12.4-22.58L12.4-22.58Q10.86-22.58 9.77-22.12 8.67-21.66 7.97-20.84 7.28-20.02 6.95-18.88 6.62-17.75 6.62-16.41L6.62-16.41Q6.62-15.04 6.95-13.92 7.28-12.79 7.98-11.98 8.69-11.16 9.78-10.71 10.86-10.25 12.4-10.25L12.4-10.25Q13.94-10.25 15.04-10.71 16.14-11.16 16.83-11.98 17.53-12.79 17.86-13.93 18.19-15.06 18.19-16.41L18.19-16.41Q18.19-17.75 17.86-18.88 17.53-20.02 16.83-20.84 16.14-21.66 15.04-22.12 13.94-22.58 12.4-22.58ZM49.17-4.71L50.39-1.42Q47.68-0.34 45.3 0.12 42.92 0.59 41.04 0.59L41.04 0.59Q38.16 0.59 36.01-0.33 33.86-1.25 32.43-2.91 31-4.57 30.28-6.87 29.56-9.18 29.56-11.96L29.56-11.96Q29.56-13.67 29.81-15.38 30.05-17.09 30.59-18.64 31.13-20.19 31.99-21.53 32.86-22.88 34.1-23.85 35.35-24.83 37.01-25.39 38.67-25.95 40.79-25.95L40.79-25.95Q46.24-25.95 49-22.55 51.76-19.14 51.76-12.79L51.76-12.79 51.76-11.45 33.88-11.45Q33.88-9.4 34.32-7.82 34.76-6.25 35.68-5.16 36.59-4.08 38-3.52 39.4-2.95 41.33-2.95L41.33-2.95Q42.4-2.95 43.47-3.11 44.53-3.27 45.53-3.53 46.53-3.78 47.45-4.1 48.36-4.42 49.17-4.71L49.17-4.71ZM34.01-14.82L47.53-14.82Q47.34-18.77 45.64-20.59 43.94-22.41 40.79-22.41L40.79-22.41Q37.64-22.41 36-20.59 34.35-18.77 34.01-14.82L34.01-14.82ZM67.74-25.95L67.74-25.95Q68.94-25.95 70.23-25.77 71.53-25.59 72.77-25.07L72.77-25.07Q74.02-24.54 75.13-23.62 76.24-22.71 77.09-21.24L77.09-21.24Q77.95-19.75 78.44-17.66 78.93-15.58 78.93-12.7L78.93-12.7Q78.93-9.81 78.44-7.73 77.95-5.64 77.09-4.17L77.09-4.17Q76.24-2.69 75.13-1.76 74.02-0.83 72.77-0.32L72.77-0.32Q71.53 0.22 70.23 0.4 68.94 0.59 67.74 0.59L67.74 0.59Q66.57 0.59 65.29 0.4 64.01 0.22 62.76-0.32L62.76-0.32Q61.52-0.83 60.42-1.76 59.32-2.69 58.47-4.17L58.47-4.17Q57.61-5.64 57.12-7.73 56.64-9.81 56.64-12.7L56.64-12.7Q56.64-15.58 57.12-17.66 57.61-19.75 58.47-21.24L58.47-21.24Q59.32-22.71 60.42-23.62 61.52-24.54 62.76-25.07L62.76-25.07Q64.01-25.59 65.28-25.77 66.55-25.95 67.74-25.95ZM67.74-22.51L67.74-22.51Q66.35-22.51 65.12-22.07 63.89-21.63 62.96-20.53L62.96-20.53Q62.01-19.41 61.45-17.53 60.88-15.65 60.88-12.7L60.88-12.7Q60.88-9.77 61.45-7.87 62.01-5.98 62.96-4.88L62.96-4.88Q63.89-3.76 65.12-3.33 66.35-2.91 67.74-2.91L67.74-2.91Q69.16-2.91 70.42-3.33 71.67-3.76 72.63-4.88L72.63-4.88Q73.58-5.98 74.13-7.87 74.68-9.77 74.68-12.7L74.68-12.7Q74.68-15.65 74.13-17.53 73.58-19.41 72.63-20.53L72.63-20.53Q71.67-21.63 70.42-22.07 69.16-22.51 67.74-22.51ZM93.01-25.95L93.01-25.95Q95.01-25.95 97.03-25.54 99.04-25.12 100.77-24.39L100.77-24.39Q100.43-23.61 100.07-22.85 99.7-22.09 99.26-21.36L99.26-21.36Q98.65-21.61 97.91-21.85 97.16-22.09 96.34-22.27 95.52-22.44 94.66-22.55 93.79-22.66 92.96-22.66L92.96-22.66Q92.06-22.66 91.22-22.47 90.37-22.29 89.73-21.88 89.08-21.46 88.69-20.79 88.3-20.12 88.3-19.12L88.3-19.12Q88.3-18.09 88.74-17.4 89.18-16.7 89.93-16.24 90.69-15.77 91.7-15.45 92.72-15.14 93.86-14.87L93.86-14.87Q95.65-14.43 97.18-13.88 98.72-13.33 99.85-12.45 100.97-11.57 101.6-10.28 102.24-8.98 102.24-7.08L102.24-7.08Q102.24-5.08 101.45-3.64 100.65-2.2 99.3-1.26 97.94-0.32 96.14 0.13 94.33 0.59 92.28 0.59L92.28 0.59Q91.2 0.59 90.07 0.45 88.93 0.32 87.82 0.06 86.71-0.2 85.64-0.56 84.56-0.93 83.61-1.37L83.61-1.37Q83.95-2.15 84.33-2.89 84.71-3.64 85.12-4.37L85.12-4.37Q85.93-4.03 86.83-3.72 87.74-3.42 88.69-3.2 89.64-2.98 90.57-2.84 91.5-2.71 92.35-2.71L92.35-2.71Q93.43-2.71 94.44-2.95 95.45-3.2 96.24-3.72 97.04-4.25 97.51-5.08 97.99-5.91 97.99-7.08L97.99-7.08Q97.99-8.18 97.54-8.89 97.09-9.59 96.33-10.07 95.57-10.55 94.56-10.85 93.55-11.16 92.42-11.43L92.42-11.43Q90.72-11.84 89.19-12.38 87.66-12.92 86.53-13.78 85.39-14.65 84.72-15.93 84.05-17.21 84.05-19.12L84.05-19.12Q84.05-20.9 84.78-22.19 85.51-23.49 86.75-24.32 87.98-25.15 89.6-25.55 91.23-25.95 93.01-25.95ZM126.55-4.71L127.77-1.42Q125.06-0.34 122.68 0.12 120.3 0.59 118.42 0.59L118.42 0.59Q115.54 0.59 113.39-0.33 111.24-1.25 109.82-2.91 108.39-4.57 107.67-6.87 106.95-9.18 106.95-11.96L106.95-11.96Q106.95-13.67 107.19-15.38 107.44-17.09 107.97-18.64 108.51-20.19 109.38-21.53 110.24-22.88 111.49-23.85 112.73-24.83 114.39-25.39 116.05-25.95 118.18-25.95L118.18-25.95Q123.62-25.95 126.38-22.55 129.14-19.14 129.14-12.79L129.14-12.79 129.14-11.45 111.27-11.45Q111.27-9.4 111.71-7.82 112.15-6.25 113.06-5.16 113.98-4.08 115.38-3.52 116.79-2.95 118.72-2.95L118.72-2.95Q119.79-2.95 120.85-3.11 121.91-3.27 122.91-3.53 123.92-3.78 124.83-4.1 125.75-4.42 126.55-4.71L126.55-4.71ZM111.39-14.82L124.92-14.82Q124.72-18.77 123.02-20.59 121.33-22.41 118.18-22.41L118.18-22.41Q115.03-22.41 113.38-20.59 111.73-18.77 111.39-14.82L111.39-14.82ZM158.73 0L158.73 0 153.14 0 150.09-11.79 145.18 0 139.66 0 133.17-25.42 137.37-25.42 142.71-3.05 148.62-17.7 146.64-25.42 150.84-25.42 156.34-3.05Q158.97-9.16 160.02-12.23L160.02-12.23Q161.29-15.97 161.29-18.65L161.29-18.65Q161.29-21 160.14-24.98L160.14-24.98Q162.37-25.54 164.17-25.88L164.17-25.88Q165.2-23.36 165.47-20.46L165.47-20.46Q165.54-19.73 165.54-18.97L165.54-18.97Q165.54-14.97 163.29-9.64L163.29-9.64Q162.68-8.23 161.91-6.6 161.14-4.98 160.11-2.84 159.07-0.71 158.73 0ZM173.57-20.9L173.57-20.9 172.49-24.32Q176.6-25.95 181.09-25.95L181.09-25.95Q185.02-25.95 187.09-24.63L187.09-24.63Q189.46-23.12 189.46-19.48L189.46-19.48 189.46-9.5Q189.46-7.5 189.51-5.4L189.51-5.4Q189.54-4.15 189.76-2.81L189.76-2.81Q189.95-1.54 190.27-0.39L190.27-0.39 186.26 0.49Q185.7-1.15 185.56-3.17L185.56-3.17 185.07-3.22Q182.04 0.59 177.35 0.59L177.35 0.59Q173.94 0.59 171.86-1.31 169.78-3.2 169.78-6.64L169.78-6.64Q169.78-9.2 170.92-10.84 172.06-12.48 174.13-13.6L174.13-13.6Q177.4-15.38 183.29-15.38L183.29-15.38Q184.07-15.38 185.39-15.33L185.39-15.33 185.39-19.04Q185.39-20.8 184.31-21.58 183.24-22.36 180.94-22.36L180.94-22.36Q177.6-22.36 173.57-20.9ZM185.39-7.13L185.39-7.13 185.39-12.26Q184.73-12.3 183.46-12.3L183.46-12.3Q181.31-12.3 179.5-11.94L179.5-11.94Q176.82-11.4 175.34-10.24 173.86-9.08 173.86-6.91L173.86-6.91Q173.86-3 178.11-3L178.11-3Q180.31-3 182.21-4.17L182.21-4.17Q183.77-5.15 185.39-7.13Z" opacity="1" transform="matrix(1,0,0,1,0,0)" fill="#ffffff" class="wordmark-text-0" data-fill-palette-color="quaternary" id="text-0"></path></svg></g></svg></g><g transform="matrix(1,0,0,1,0,51.860757515710496)"><svg viewBox="0 0 213.1584412271571 20.662572879162393" height="20.662572879162393" width="213.1584412271571"><g transform="matrix(1,0,0,1,0,0)"><svg width="213.1584412271571" viewBox="-0.800000011920929 -37.349998474121094 510.5999755859375 49.500003814697266" height="20.662572879162393" data-palette-color="#ffffff"><path d="M11.95 0L11.95-17.15-0.8-36.75 5.9-36.75 14.75-22.25 23.6-36.75 30.25-36.75 17.55-17.05 17.55 0 11.95 0ZM40.2 0.5Q36.65 0.5 33.9-1.1 31.15-2.7 29.65-5.45 28.15-8.2 28.15-11.55L28.15-11.55Q28.15-14.85 29.62-17.6 31.1-20.35 33.85-21.95 36.6-23.55 40.2-23.55L40.2-23.55Q43.8-23.55 46.52-21.95 49.25-20.35 50.72-17.6 52.2-14.85 52.2-11.55L52.2-11.55Q52.2-8.2 50.7-5.45 49.2-2.7 46.47-1.1 43.75 0.5 40.2 0.5L40.2 0.5ZM40.35-3.9Q43.25-3.9 44.92-6.05 46.6-8.2 46.6-11.45L46.6-11.45Q46.6-14.7 44.8-16.93 43-19.15 40.05-19.15L40.05-19.15Q37.2-19.15 35.47-16.95 33.75-14.75 33.75-11.45L33.75-11.45Q33.75-8.25 35.6-6.08 37.45-3.9 40.35-3.9L40.35-3.9ZM65.9 0.5Q61.15 0.5 59.37-2.3 57.6-5.1 57.6-10.1L57.6-10.1 57.6-22.95 63-22.95 63-11.45Q63-8.6 63.32-7.03 63.65-5.45 64.62-4.7 65.6-3.95 67.55-3.95L67.55-3.95Q68.95-3.95 70.25-4.75 71.55-5.55 72.37-6.93 73.2-8.3 73.2-9.95L73.2-9.95 73.2-22.95 78.55-22.95 78.55 0 74.15 0 73.55-3.35Q72.3-1.4 70.42-0.45 68.55 0.5 65.9 0.5L65.9 0.5ZM85.59 0L85.59-22.95 90.99-22.95 90.99-18.45Q91.79-20.75 93.59-22.15 95.39-23.55 97.69-23.55L97.69-23.55Q99.29-23.55 99.89-23.25L99.89-23.25 99.14-17.8Q98.69-18.1 97.19-18.1L97.19-18.1Q94.84-18.1 92.92-16.6 90.99-15.1 90.99-11.8L90.99-11.8 90.99 0 85.59 0ZM124.74 0.5Q121.74 0.5 118.79-0.55 115.84-1.6 114.54-2.9L114.54-2.9 117.19-7.65Q118.24-6.7 120.46-5.68 122.69-4.65 124.74-4.65L124.74-4.65Q127.39-4.65 129.06-5.9 130.74-7.15 130.74-9.35L130.74-9.35Q130.74-11.05 129.84-12.3 128.94-13.55 127.64-14.38 126.34-15.2 123.94-16.4L123.94-16.4Q121.09-17.8 120.04-18.5L120.04-18.5Q115.19-21.75 115.19-27.5L115.19-27.5Q115.19-32.25 118.34-34.77 121.49-37.3 126.29-37.3L126.29-37.3Q131.44-37.3 135.04-34.35L135.04-34.35 132.39-29.8Q131.44-30.8 129.71-31.53 127.99-32.25 126.04-32.25L126.04-32.25Q123.54-32.25 122.11-31.13 120.69-30 120.69-27.8L120.69-27.8Q120.69-26.25 121.59-25.03 122.49-23.8 123.86-22.9 125.24-22 127.59-20.7L127.59-20.7Q129.84-19.45 131.04-18.73 132.24-18 133.29-17L133.29-17Q134.74-15.7 135.64-13.9 136.54-12.1 136.54-9.95L136.54-9.95Q136.54-6.6 135.01-4.25 133.49-1.9 130.81-0.7 128.14 0.5 124.74 0.5L124.74 0.5ZM142.29 12.15L142.29-22.95 147.49-22.95 147.49-18.7Q150.24-23.55 156.09-23.55L156.09-23.55Q160.94-23.55 163.94-20.48 166.94-17.4 166.94-11.6L166.94-11.6Q166.94-8 165.46-5.25 163.99-2.5 161.46-1 158.94 0.5 155.84 0.5L155.84 0.5Q152.94 0.5 150.81-0.53 148.69-1.55 147.49-3.45L147.49-3.45 147.54 12.15 142.29 12.15ZM154.59-4.05Q157.84-4.05 159.59-6.13 161.34-8.2 161.34-11.45L161.34-11.45Q161.34-14.85 159.61-16.88 157.89-18.9 154.59-18.9L154.59-18.9Q152.79-18.9 151.21-18.03 149.64-17.15 148.71-15.53 147.79-13.9 147.79-11.75L147.79-11.75 147.79-11.4Q147.79-9.25 148.71-7.58 149.64-5.9 151.19-4.98 152.74-4.05 154.59-4.05L154.59-4.05ZM182.83 0.5Q179.73 0.5 177.11-0.98 174.48-2.45 172.91-5.18 171.33-7.9 171.33-11.55L171.33-11.55Q171.33-15.15 172.71-17.85 174.08-20.55 176.63-22.05 179.18-23.55 182.63-23.55L182.63-23.55Q184.63-23.55 186.38-22.85 188.13-22.15 189.33-21.13 190.53-20.1 190.93-19.1L190.93-19.1 191.03-22.95 196.18-22.95 196.18 0 191.08 0 190.98-4.05Q190.13-2.25 187.88-0.88 185.63 0.5 182.83 0.5L182.83 0.5ZM183.73-4Q186.58-4 188.53-5.98 190.48-7.95 190.48-11.15L190.48-11.15 190.48-11.5Q190.48-13.65 189.58-15.35 188.68-17.05 187.13-18 185.58-18.95 183.73-18.95L183.73-18.95Q180.53-18.95 178.78-16.88 177.03-14.8 177.03-11.5L177.03-11.5Q177.03-8.15 178.76-6.08 180.48-4 183.73-4L183.73-4ZM205.43 0L205.43-18.55 201.38-18.55 201.38-22.95 205.43-22.95 205.43-32.3 210.88-33.5 210.88-22.95 216.18-22.95 216.18-18.55 210.88-18.55 210.88 0 205.43 0ZM220.98 0L220.98-22.95 226.58-22.95 226.58 0 220.98 0ZM223.73-27.25Q222.18-27.25 221.13-28.3 220.08-29.35 220.08-30.9L220.08-30.9Q220.08-32.3 221.13-33.3 222.18-34.3 223.73-34.3L223.73-34.3Q225.23-34.3 226.28-33.3 227.33-32.3 227.33-30.9L227.33-30.9Q227.33-29.35 226.3-28.3 225.28-27.25 223.73-27.25L223.73-27.25ZM244.23 0.5Q241.13 0.5 238.5-0.98 235.88-2.45 234.3-5.18 232.73-7.9 232.73-11.55L232.73-11.55Q232.73-15.15 234.1-17.85 235.48-20.55 238.03-22.05 240.58-23.55 244.03-23.55L244.03-23.55Q246.03-23.55 247.78-22.85 249.53-22.15 250.73-21.13 251.93-20.1 252.33-19.1L252.33-19.1 252.43-22.95 257.58-22.95 257.58 0 252.48 0 252.38-4.05Q251.53-2.25 249.28-0.88 247.03 0.5 244.23 0.5L244.23 0.5ZM245.13-4Q247.98-4 249.93-5.98 251.88-7.95 251.88-11.15L251.88-11.15 251.88-11.5Q251.88-13.65 250.98-15.35 250.08-17.05 248.53-18 246.98-18.95 245.13-18.95L245.13-18.95Q241.93-18.95 240.18-16.88 238.43-14.8 238.43-11.5L238.43-11.5Q238.43-8.15 240.15-6.08 241.88-4 245.13-4L245.13-4ZM265.27 0L265.27-36.75 270.62-36.75 270.62 0 265.27 0ZM315.62 0L309.17 0 301.77-13.9Q299.47-13.8 297.67-13.8L297.67-13.8 296.27-13.8 296.27 0 290.82 0 290.82-36.75 299.17-36.75Q305.52-36.75 309.62-34.13 313.72-31.5 313.72-25.6L313.72-25.6Q313.72-21.9 311.99-19.23 310.27-16.55 306.87-15.1L306.87-15.1 315.62 0ZM296.27-18.35L299.82-18.35Q304.72-18.35 306.54-20.48 308.37-22.6 308.37-25.55L308.37-25.55Q308.37-32.1 299.62-32.1L299.62-32.1 296.27-32.1 296.27-18.35ZM331.81 0.5Q327.72 0.5 324.97-1.13 322.22-2.75 320.92-5.48 319.62-8.2 319.62-11.45L319.62-11.45Q319.62-15.1 321.14-17.85 322.67-20.6 325.37-22.08 328.06-23.55 331.47-23.55L331.47-23.55Q336.77-23.55 339.34-20.63 341.92-17.7 341.92-12.4L341.92-12.4Q341.92-11.05 341.77-9.6L341.77-9.6 325.27-9.6Q325.81-6.55 327.44-5.2 329.06-3.85 331.97-3.85L331.97-3.85Q334.37-3.85 335.92-4.25 337.47-4.65 338.77-5.35L338.77-5.35 340.42-1.5Q339.17-0.7 337.02-0.1 334.87 0.5 331.81 0.5L331.81 0.5ZM325.27-13.35L336.67-13.35Q336.72-16.45 335.31-17.73 333.92-19 331.31-19L331.31-19Q326.06-19 325.27-13.35L325.27-13.35ZM349.71 0L349.71-18.65 346.01-18.65 346.01-22.95 349.71-22.95 349.71-27.9Q349.71-32.4 351.89-34.88 354.06-37.35 358.26-37.35L358.26-37.35Q359.96-37.35 362.11-36.4L362.11-36.4 361.06-31.3Q360.71-31.7 359.99-32.08 359.26-32.45 358.41-32.45L358.41-32.45Q355.06-32.45 355.01-28.1L355.01-28.1 355.01-22.95 360.41-22.95 360.41-18.65 355.01-18.65 355.01 0 349.71 0ZM376.51 0.5Q372.41 0.5 369.66-1.13 366.91-2.75 365.61-5.48 364.31-8.2 364.31-11.45L364.31-11.45Q364.31-15.1 365.84-17.85 367.36-20.6 370.06-22.08 372.76-23.55 376.16-23.55L376.16-23.55Q381.46-23.55 384.04-20.63 386.61-17.7 386.61-12.4L386.61-12.4Q386.61-11.05 386.46-9.6L386.46-9.6 369.96-9.6Q370.51-6.55 372.14-5.2 373.76-3.85 376.66-3.85L376.66-3.85Q379.06-3.85 380.61-4.25 382.16-4.65 383.46-5.35L383.46-5.35 385.11-1.5Q383.86-0.7 381.71-0.1 379.56 0.5 376.51 0.5L376.51 0.5ZM369.96-13.35L381.36-13.35Q381.41-16.45 380.01-17.73 378.61-19 376.01-19L376.01-19Q370.76-19 369.96-13.35L369.96-13.35ZM392.11 0L392.11-22.95 397.51-22.95 397.51-18.45Q398.31-20.75 400.11-22.15 401.91-23.55 404.21-23.55L404.21-23.55Q405.81-23.55 406.41-23.25L406.41-23.25 405.66-17.8Q405.21-18.1 403.71-18.1L403.71-18.1Q401.36-18.1 399.43-16.6 397.51-15.1 397.51-11.8L397.51-11.8 397.51 0 392.11 0ZM421.06 0.5Q416.96 0.5 414.21-1.13 411.46-2.75 410.16-5.48 408.86-8.2 408.86-11.45L408.86-11.45Q408.86-15.1 410.38-17.85 411.91-20.6 414.61-22.08 417.31-23.55 420.71-23.55L420.71-23.55Q426.01-23.55 428.58-20.63 431.16-17.7 431.16-12.4L431.16-12.4Q431.16-11.05 431.01-9.6L431.01-9.6 414.51-9.6Q415.06-6.55 416.68-5.2 418.31-3.85 421.21-3.85L421.21-3.85Q423.61-3.85 425.16-4.25 426.71-4.65 428.01-5.35L428.01-5.35 429.66-1.5Q428.41-0.7 426.26-0.1 424.11 0.5 421.06 0.5L421.06 0.5ZM414.51-13.35L425.91-13.35Q425.96-16.45 424.56-17.73 423.16-19 420.56-19L420.56-19Q415.31-19 414.51-13.35L414.51-13.35ZM436.8 0L436.8-22.95 442.1-22.95 442.15-18.75Q443.1-20.85 445.15-22.2 447.2-23.55 449.95-23.55L449.95-23.55Q453.5-23.55 455.4-22.08 457.3-20.6 457.95-17.95 458.6-15.3 458.6-11.05L458.6-11.05 458.6 0 453.2 0 453.2-10.9Q453.2-15.25 452.35-17.18 451.5-19.1 448.85-19.1L448.85-19.1Q447.35-19.1 445.8-18.18 444.25-17.25 443.23-15.5 442.2-13.75 442.2-11.4L442.2-11.4 442.2 0 436.8 0ZM476.25 0.5Q472.85 0.5 470.13-0.98 467.4-2.45 465.8-5.23 464.2-8 464.2-11.75L464.2-11.75Q464.2-15.3 465.68-17.98 467.15-20.65 469.83-22.1 472.5-23.55 476-23.55L476-23.55Q478.65-23.55 480.58-22.88 482.5-22.2 483.6-21.2L483.6-21.2 481.2-16.85Q479.1-18.95 476.45-18.95L476.45-18.95Q473.25-18.95 471.58-17 469.9-15.05 469.9-11.8L469.9-11.8Q469.9-8.1 471.63-6.05 473.35-4 476.45-4L476.45-4Q478-4 479.48-4.45 480.95-4.9 481.75-5.5L481.75-5.5 483.7-1.7Q482.6-0.85 480.63-0.18 478.65 0.5 476.25 0.5L476.25 0.5ZM499.7 0.5Q495.6 0.5 492.85-1.13 490.1-2.75 488.8-5.48 487.5-8.2 487.5-11.45L487.5-11.45Q487.5-15.1 489.02-17.85 490.55-20.6 493.25-22.08 495.95-23.55 499.35-23.55L499.35-23.55Q504.65-23.55 507.22-20.63 509.8-17.7 509.8-12.4L509.8-12.4Q509.8-11.05 509.65-9.6L509.65-9.6 493.15-9.6Q493.7-6.55 495.32-5.2 496.95-3.85 499.85-3.85L499.85-3.85Q502.25-3.85 503.8-4.25 505.35-4.65 506.65-5.35L506.65-5.35 508.3-1.5Q507.05-0.7 504.9-0.1 502.75 0.5 499.7 0.5L499.7 0.5ZM493.15-13.35L504.55-13.35Q504.6-16.45 503.2-17.73 501.8-19 499.2-19L499.2-19Q493.95-19 493.15-13.35L493.15-13.35Z" opacity="1" transform="matrix(1,0,0,1,0,0)" fill="#ffffff" class="slogan-text-1" data-fill-palette-color="quaternary" id="text-1"></path></svg></g></svg></g></svg></g></svg></g><g transform="matrix(1,0,0,1,56.46559931072139,0)"><svg viewBox="0 0 100.22724260571434 100.22724260571434" height="100.22724260571434" width="100.22724260571434"><g><svg version="1.0" xmlns="http://www.w3.org/2000/svg" xmlns:xlink="http://www.w3.org/1999/xlink" x="0" y="0" viewBox="0 0 100 100" enable-background="new 0 0 100 100" xml:space="preserve" height="100.22724260571434" width="100.22724260571434" class="icon-icon-0" data-fill-palette-color="quaternary" id="icon-0"><path d="M100 50C100 77.614 77.614 100 50 100S0 77.614 0 50 22.386 0 50 0 100 22.386 100 50M24.024 47.545C24.255 40.543 25.468 33.845 27.502 27.652L10.799 27.633A44.9 44.9 0 0 0 4.941 47.545zM47.559 27.635H32.673C30.455 33.848 29.15 40.533 28.903 47.545H47.558zM47.559 4.937C42.303 9.635 37.866 15.706 34.66 22.709H47.559zM14.032 22.708H29.35C31.927 16.549 35.47 10.839 39.551 6.112 29.015 8.488 20.001 14.842 14.032 22.708M95.059 47.545A44.9 44.9 0 0 0 89.201 27.633L72.496 27.652C74.531 33.845 75.744 40.543 75.975 47.545zM52.441 47.545H71.097C70.85 40.533 69.544 33.848 67.326 27.635H52.441zM52.441 22.708H65.341C62.134 15.705 57.697 9.634 52.441 4.936zM60.448 6.113C64.53 10.84 68.074 16.55 70.65 22.708H85.968C80 14.842 70.987 8.488 60.448 6.113M4.941 52.455A44.9 44.9 0 0 0 10.799 72.365L27.502 72.347C25.468 66.155 24.255 59.456 24.024 52.454zM47.559 52.455H28.903C29.15 59.468 30.455 66.152 32.673 72.365H47.559zM47.559 77.292H34.659C37.866 84.296 42.302 90.366 47.558 95.063zM39.551 93.887C35.47 89.158 31.926 83.45 29.35 77.291H14.032C20.001 85.157 29.015 91.511 39.551 93.887M75.974 52.455C75.744 59.457 74.531 66.155 72.495 72.348L89.2 72.366A44.86 44.86 0 0 0 95.058 52.456H75.974zM52.441 72.365H67.327C69.545 66.152 70.85 59.468 71.098 52.455H52.441zM52.441 95.063C57.698 90.366 62.134 84.295 65.341 77.292H52.441zM85.968 77.292H70.65C68.074 83.451 64.53 89.159 60.448 93.888 70.987 91.511 80 85.157 85.968 77.292" fill="#ffffff" data-fill-palette-color="quaternary"></path></svg></g></svg></g><g></g></svg></g></svg></g></svg></g></svg></g><defs></defs></svg><rect width="342.85155851775386" height="342.85155851775386" fill="none" stroke="none" visibility="hidden"></rect></g></svg>