<svg xmlns:xlink="http://www.w3.org/1999/xlink"  width="67" height="67" viewBox="0 0 67 67" fill="none" xmlns="http://www.w3.org/2000/svg">
<rect width="66.2069" height="66.4151" rx="33.1034" fill="#D5FEE5"/>
<rect x="5.04297" y="4.89917" width="56.1224" height="56.2791" rx="28.0612" fill="#09AD4A"/>
<path d="M18 47.12H29.7181V40.4015H36.2818V47.12H47.9999V33.8574H18V47.12ZM43.5485 36.2699H45.3067V39.1805H43.5485V36.2699ZM43.5485 40.9387H45.3067V43.8493H43.5485V40.9387ZM39.9152 36.2699H41.6733V39.1805H39.9152V36.2699ZM39.9152 40.9387H41.6733V43.8493H39.9152V40.9387ZM29.7181 36.5531H36.2818V38.3112H29.7181V36.5531ZM24.3266 36.2699H26.0847V39.1805H24.3266V36.2699ZM24.3266 40.9387H26.0847V43.8493H24.3266V40.9387ZM20.6932 36.2699H22.4514V39.1805H20.6932V36.2699ZM22.4514 40.9387V43.8493H20.6932V40.9387H22.4514Z" fill="white"/>
<path d="M31.4761 42.1594H34.5235V47.1199H31.4761V42.1594Z" fill="white"/>
<path d="M22.0995 29.1689H43.9V32.0994H22.0995V29.1689Z" fill="white"/>
<path d="M34.0354 23.6997H33.8788V22.1989H37.9253V17.1199H32.1207V23.6997H31.9641C29.509 23.6997 27.4087 25.2435 26.5802 27.4108H39.4193C38.5908 25.2435 36.4905 23.6997 34.0354 23.6997Z" fill="white"/>
</svg>
