<svg xmlns:xlink="http://www.w3.org/1999/xlink"  width="67" height="67" viewBox="0 0 67 67" fill="none" xmlns="http://www.w3.org/2000/svg">
<rect width="66.2069" height="66.4151" rx="33.1034" fill="#D5FEE5"/>
<rect x="5.04297" y="4.89917" width="56.1224" height="56.2791" rx="28.0612" fill="#004677"/>
<path fill-rule="evenodd" clip-rule="evenodd" d="M38.6502 48.0565V39.285C38.6502 37.7857 37.4348 36.5703 35.9356 36.5703H30.0644C28.5652 36.5703 27.3497 37.7857 27.3497 39.285V48.0565H25.056V23.1359C25.056 22.9626 25.1964 22.8222 25.3697 22.8222H40.6303C40.8036 22.8222 40.944 22.9626 40.944 23.1359V48.0565H38.6502ZM28.1139 29.2964V32.2798C28.1139 32.5222 28.2871 32.73 28.5256 32.7736C33.6663 33.7139 31.9991 33.7139 37.1398 32.7736C37.3782 32.73 37.5515 32.5222 37.5515 32.2798V29.2964L38.4992 29.0444V31.2864L38.0411 31.5517C37.8861 31.6415 37.7906 31.807 37.7906 31.9861V34.1483C37.7906 34.3385 37.8982 34.5124 38.0684 34.5973C38.2386 34.6824 38.4422 34.6638 38.5943 34.5494L39.0012 34.2434L39.4081 34.5494C39.5601 34.6638 39.7637 34.6824 39.9339 34.5973C40.1042 34.5124 40.2117 34.3385 40.2117 34.1483V31.9861C40.2117 31.807 40.1163 31.6415 39.9613 31.5517L39.5031 31.2864V28.3915C39.5031 28.164 39.35 27.9649 39.1301 27.9065L32.9615 26.2682C32.8771 26.2457 32.7883 26.2457 32.7038 26.2682L26.5353 27.9065C26.3154 27.9649 26.1622 28.164 26.1622 28.3915C26.1622 28.6191 26.3152 28.8182 26.5352 28.8767L28.1139 29.2964ZM36.9298 28.4228C36.9235 28.4244 36.9172 28.4261 36.9109 28.4279L32.8326 29.512L28.7544 28.4279C28.7481 28.4261 28.7419 28.4244 28.7355 28.4228L28.6189 28.3918L32.8327 27.2727L37.0465 28.3918L36.9298 28.4228ZM29.1178 29.5632L32.7037 30.5165C32.7882 30.5389 32.8771 30.5389 32.9616 30.5165L36.5475 29.5632V31.862C32.253 32.6616 33.4123 32.6616 29.1178 31.862V29.5632ZM38.7946 33.1578V32.2755L39.0012 32.1558L39.2078 32.2755V33.1578C39.0767 33.0985 38.9257 33.0985 38.7946 33.1578ZM28.3536 48.0565V39.285C28.3536 38.3401 29.1196 37.5742 30.0644 37.5742H32.3307V48.0565H28.3536ZM30.904 42.8781V44.0014C30.904 44.2785 31.129 44.5034 31.406 44.5034C31.683 44.5034 31.908 44.2785 31.908 44.0014V42.8781C31.908 42.6011 31.683 42.3762 31.406 42.3762C31.129 42.3762 30.904 42.6011 30.904 42.8781ZM33.3347 48.0565V37.5742H35.9356C36.8804 37.5742 37.6463 38.3401 37.6463 39.285V48.0565H33.3347ZM33.7574 42.8781V44.0014C33.7574 44.2785 33.9823 44.5034 34.2593 44.5034C34.5364 44.5034 34.7613 44.2785 34.7613 44.0014V42.8781C34.7613 42.6011 34.5364 42.3762 34.2593 42.3762C33.9823 42.3762 33.7574 42.6011 33.7574 42.8781ZM26.5122 21.8182V20.1419C26.5122 20.0587 26.5453 19.9789 26.6041 19.92C26.6629 19.8612 26.7427 19.8281 26.8259 19.8281H29.413V18.7368C29.413 18.6536 29.446 18.5738 29.5049 18.515C29.5637 18.4561 29.6435 18.4231 29.7267 18.4231H36.2733C36.3565 18.4231 36.4363 18.4561 36.4951 18.515C36.5539 18.5738 36.587 18.6536 36.587 18.7368V19.8281H39.174C39.2572 19.8281 39.3371 19.8612 39.3959 19.92C39.4547 19.9789 39.4878 20.0587 39.4878 20.1419V21.8182H26.5122ZM24.052 29.97V48.0565H18.2549C18.1717 48.0565 18.0919 48.0235 18.033 47.9646C17.9742 47.9058 17.9412 47.826 17.9412 47.7427V30.2837C17.9412 30.2005 17.9742 30.1207 18.033 30.0619C18.0919 30.0031 18.1717 29.97 18.2549 29.97H24.052ZM22.5391 40.7975H19.4541C19.3709 40.7975 19.2911 40.8306 19.2323 40.8894C19.1735 40.9482 19.1404 41.028 19.1404 41.1112V44.1961C19.1404 44.2793 19.1735 44.3592 19.2323 44.418C19.2911 44.4768 19.3709 44.5099 19.4541 44.5099H22.5391C22.6223 44.5099 22.7021 44.4768 22.7609 44.418C22.8197 44.3592 22.8528 44.2793 22.8528 44.1961V41.1112C22.8528 41.028 22.8197 40.9482 22.7609 40.8894C22.7021 40.8306 22.6223 40.7975 22.5391 40.7975ZM22.5391 33.5166H19.4541C19.3709 33.5166 19.2911 33.5497 19.2323 33.6085C19.1735 33.6674 19.1404 33.7471 19.1404 33.8303V36.9153C19.1404 36.9985 19.1735 37.0783 19.2323 37.1371C19.2911 37.1959 19.3709 37.229 19.4541 37.229H22.5391C22.6223 37.229 22.7021 37.1959 22.7609 37.1371C22.8197 37.0783 22.8528 36.9985 22.8528 36.9153V33.8303C22.8528 33.7471 22.8197 33.6674 22.7609 33.6085C22.7021 33.5497 22.6223 33.5166 22.5391 33.5166ZM41.9479 48.0565V29.97H47.7451C47.8283 29.97 47.9081 30.0031 47.967 30.0619C48.0257 30.1207 48.0588 30.2005 48.0588 30.2837V47.7427C48.0588 47.826 48.0257 47.9058 47.967 47.9646C47.9081 48.0235 47.8283 48.0565 47.7451 48.0565H41.9479ZM46.5458 40.7975H43.4609C43.3777 40.7975 43.2979 40.8306 43.2391 40.8894C43.1803 40.9482 43.1472 41.028 43.1472 41.1112V44.1961C43.1472 44.2793 43.1803 44.3592 43.2391 44.418C43.2979 44.4768 43.3777 44.5099 43.4609 44.5099H46.5458C46.629 44.5099 46.7088 44.4768 46.7677 44.418C46.8265 44.3592 46.8596 44.2793 46.8596 44.1961V41.1112C46.8596 41.028 46.8265 40.9482 46.7677 40.8894C46.7088 40.8306 46.629 40.7975 46.5458 40.7975ZM46.5458 33.5166H43.4609C43.3777 33.5166 43.2979 33.5497 43.2391 33.6085C43.1803 33.6674 43.1472 33.7471 43.1472 33.8303V36.9153C43.1472 36.9985 43.1803 37.0783 43.2391 37.1371C43.2979 37.1959 43.3777 37.229 43.4609 37.229H46.5458C46.629 37.229 46.7088 37.1959 46.7677 37.1371C46.8265 37.0783 46.8596 36.9985 46.8596 36.9153V33.8303C46.8596 33.7471 46.8265 33.6674 46.7677 33.6085C46.7088 33.5497 46.629 33.5166 46.5458 33.5166Z" fill="white"/>
</svg>
