<svg xmlns:xlink="http://www.w3.org/1999/xlink"  width="67" height="67" viewBox="0 0 67 67" fill="none" xmlns="http://www.w3.org/2000/svg">
<rect width="66.2069" height="66.4151" rx="33.1034" fill="#D5FEE5"/>
<path d="M42.1381 34.7183L30.0691 27.4541C29.6818 27.221 29.2003 27.221 28.813 27.4541L16.61 34.799C16.1398 35.0817 15.9158 35.6454 16.0618 36.1756C16.2084 36.7057 16.6892 37.0727 17.238 37.0727H41.6441C41.6524 37.0721 41.6596 37.0715 41.6685 37.0727C42.3424 37.0727 42.8888 36.5246 42.8888 35.8486C42.8888 35.3393 42.579 34.903 42.1381 34.7183Z" fill="white"/>
<path d="M18.4583 38.2971H20.8989V44.4178H18.4583V38.2971Z" fill="white"/>
<path d="M23.3394 38.2971H25.78V44.4178H23.3394V38.2971Z" fill="white"/>
<path d="M28.2207 38.2971H30.6613V44.4178H28.2207V38.2971Z" fill="white"/>
<path d="M33.1021 38.2971H35.5427V44.4178H33.1021V38.2971Z" fill="white"/>
<path d="M37.9832 38.2971H40.4238V44.4178H37.9832V38.2971Z" fill="white"/>
<path d="M42.6374 48.5701L41.5154 46.3185C41.3087 45.9036 40.8862 45.6418 40.4238 45.6418H18.4583C17.996 45.6418 17.5735 45.9036 17.3667 46.3185L16.1464 48.7668C15.9575 49.1463 15.9778 49.597 16.2001 49.958C16.4223 50.3185 16.815 50.5384 17.238 50.5384H41.6442C41.6525 50.5372 41.6596 50.5378 41.6686 50.5384C42.3425 50.5384 42.8889 49.9903 42.8889 49.3143C42.8889 49.0345 42.7953 48.7763 42.6374 48.5701Z" fill="white"/>
<path d="M46.5251 24.8719L41.3853 27.0811C41.0808 27.2126 40.7566 27.2795 40.4236 27.2795C40.0905 27.2795 39.7663 27.2126 39.4607 27.0805L34.322 24.8713V27.2795C34.322 27.7433 34.583 28.1671 34.9965 28.3745L39.8778 30.8228C40.0494 30.9089 40.2365 30.9519 40.4236 30.9519C40.6106 30.9519 40.7977 30.9089 40.9694 30.8228L45.8506 28.3745C46.2641 28.1671 46.5251 27.7433 46.5251 27.2795V24.8719Z" fill="white"/>
<path d="M49.4468 20.0339L40.9047 16.3615C40.5972 16.2288 40.2504 16.2288 39.943 16.3615L31.4008 20.0339C30.9522 20.2264 30.6614 20.6693 30.6614 21.1588C30.6614 21.6484 30.9522 22.0913 31.4008 22.2838L39.943 25.9562C40.0967 26.0225 40.26 26.0554 40.4238 26.0554C40.5877 26.0554 40.7509 26.0225 40.9047 25.9562L47.7457 23.0151V29.7278C47.7457 30.4039 48.2921 30.952 48.966 30.952C49.6399 30.952 50.1863 30.4039 50.1863 29.7278V21.1588C50.1863 20.6693 49.8955 20.2264 49.4468 20.0339Z" fill="white"/>
<rect x="5.04297" y="4.89917" width="56.1224" height="56.2791" rx="28.0612" fill="#09AD4A"/>
<path d="M40.7625 34.3188L30.5318 28.1633C30.2035 27.9658 29.7954 27.9658 29.4671 28.1633L19.1228 34.3872C18.7242 34.6268 18.5343 35.1044 18.6581 35.5537C18.7823 36.0029 19.1899 36.3139 19.6551 36.3139H40.3438C40.3508 36.3134 40.3569 36.3129 40.3645 36.3139C40.9357 36.3139 41.3989 35.8495 41.3989 35.2766C41.3989 34.8451 41.1363 34.4753 40.7625 34.3188Z" fill="white"/>
<path d="M20.6895 37.3513H22.7583V42.5379H20.6895V37.3513Z" fill="white"/>
<path d="M24.8271 37.3513H26.896V42.5379H24.8271V37.3513Z" fill="white"/>
<path d="M28.9651 37.3513H31.034V42.5379H28.9651V37.3513Z" fill="white"/>
<path d="M33.1028 37.3513H35.1716V42.5379H33.1028V37.3513Z" fill="white"/>
<path d="M37.2405 37.3513H39.3093V42.5379H37.2405V37.3513Z" fill="white"/>
<path d="M41.1858 46.0566L40.2347 44.1486C40.0595 43.797 39.7014 43.5752 39.3094 43.5752H20.6896C20.2977 43.5752 19.9396 43.797 19.7643 44.1486L18.7299 46.2232C18.5698 46.5448 18.5869 46.9267 18.7753 47.2327C18.9637 47.5381 19.2966 47.7245 19.6552 47.7245H40.3438C40.3509 47.7235 40.357 47.724 40.3646 47.7245C40.9358 47.7245 41.399 47.26 41.399 46.6872C41.399 46.4501 41.3197 46.2313 41.1858 46.0566Z" fill="white"/>
<path d="M44.4813 25.9753L40.1243 27.8473C39.8662 27.9588 39.5915 28.0155 39.3091 28.0155C39.0268 28.0155 38.752 27.9588 38.4929 27.8468L34.137 25.9749V28.0155C34.137 28.4085 34.3582 28.7677 34.7087 28.9434L38.8465 31.018C38.9919 31.091 39.1505 31.1274 39.3091 31.1274C39.4677 31.1274 39.6263 31.091 39.7718 31.018L43.9095 28.9434C44.2601 28.7677 44.4813 28.4085 44.4813 28.0155V25.9753Z" fill="white"/>
<path d="M46.958 21.8755L39.717 18.7635C39.4564 18.6511 39.1624 18.6511 38.9018 18.7635L31.6608 21.8755C31.2804 22.0386 31.0339 22.4139 31.0339 22.8287C31.0339 23.2436 31.2804 23.6189 31.6608 23.782L38.9018 26.8939C39.0321 26.9501 39.1705 26.978 39.3094 26.978C39.4483 26.978 39.5867 26.9501 39.717 26.8939L45.516 24.4017V30.09C45.516 30.6628 45.9792 31.1273 46.5504 31.1273C47.1217 31.1273 47.5849 30.6628 47.5849 30.09V22.8287C47.5849 22.4139 47.3384 22.0386 46.958 21.8755Z" fill="white"/>
</svg>
