<svg xmlns:xlink="http://www.w3.org/1999/xlink"  width="67" height="67" viewBox="0 0 67 67" fill="none" xmlns="http://www.w3.org/2000/svg">
<rect width="66.2069" height="66.4151" rx="33.1034" fill="#D5FEE5"/>
<rect x="5.04297" y="4.89917" width="56.1224" height="56.2791" rx="28.0612" fill="#001F3F"/>
<path fill-rule="evenodd" clip-rule="evenodd" d="M48.2618 24.5216H43.5035L42.3673 26.5087H46.1547H46.687V27.0461V40.3421V40.8795H46.1547H20.8453H20.313V40.3421V27.046V26.5086H20.8453H24.6327L23.4965 24.5216H18.7382H18.206V25.059V42.329V42.8664H18.7382H48.2618H48.794V42.329V25.059V24.5216H48.2618ZM28.7797 31.6112L23.7528 22.8203L26.1902 20.3594L28.943 25.1736L31.0212 28.8079C30.8113 28.9305 30.6112 29.0682 30.4222 29.2195C30.3451 29.2813 30.2698 29.3454 30.1965 29.4116L30.1898 29.4176C30.1764 29.4296 30.1632 29.4418 30.15 29.454L30.1434 29.4601L30.1409 29.4624L30.1368 29.4662L30.1302 29.4723L30.1236 29.4784L30.117 29.4846L30.1111 29.4902L30.1105 29.4908L30.104 29.497L30.0975 29.5032L30.0964 29.5042L30.0909 29.5094L30.0844 29.5157L30.0817 29.5183L30.0779 29.5219L30.0715 29.5282L30.067 29.5325L30.065 29.5344L30.0586 29.5407L30.0525 29.5466L30.0458 29.5532L30.0393 29.5595L30.038 29.5609L30.0329 29.5659L30.0266 29.5722L30.0235 29.5752L30.0202 29.5785L30.0139 29.5849L30.0092 29.5896L30.0075 29.5913L30.0012 29.5977L29.9948 29.604L29.9704 29.6289L29.9691 29.6302L29.9655 29.6339L29.9461 29.654L29.9436 29.6566L29.9364 29.664L29.9202 29.681L29.9183 29.6831L29.9172 29.6842L29.9166 29.6849L29.8981 29.7045L29.8931 29.7098L29.8886 29.7147L29.8705 29.7341L29.8696 29.7351L29.8682 29.7367L29.8652 29.7399L29.8508 29.7557L29.8434 29.7637L29.8414 29.766L29.8408 29.7667L29.8228 29.7868L29.8189 29.7911L29.8169 29.7934L29.795 29.818L29.7724 29.8438L29.7704 29.8461L29.7675 29.8495L29.7584 29.8601L29.7493 29.8707L29.7421 29.879L29.7245 29.8997L29.7227 29.9018L29.7221 29.9025L29.7212 29.9037L29.7027 29.9257L29.6961 29.9337L29.6953 29.9346L29.6864 29.9454L29.6775 29.9562L29.6758 29.9583L29.6726 29.9622L29.659 29.9789L29.6487 29.9918L29.6307 30.0144L29.6298 30.0155L29.6251 30.0215L29.6115 30.0388L29.6021 30.0508L29.5992 30.0544L29.5907 30.0655L29.5845 30.0734L29.5822 30.0766C29.5694 30.0932 29.5568 30.1099 29.5442 30.1267L29.5348 30.1392L29.5316 30.1435L29.5233 30.1548L29.5183 30.1616L29.5151 30.166L29.4988 30.1883L29.4966 30.1913L29.4942 30.1947L29.4776 30.2177L29.4752 30.2211L29.4741 30.2226L29.4719 30.2255L29.4569 30.2468L29.4503 30.2561L29.4498 30.2568L29.4418 30.2683L29.4338 30.2799L29.4288 30.287C29.1516 30.6892 28.9312 31.1346 28.7797 31.6112ZM27.3758 20.3594L28.783 22.8203H38.217L39.6242 20.3594H33.5H27.3758ZM37.1694 26.7257L40.8099 20.3594L43.2472 22.8203L38.2204 31.6112C38.114 31.2766 37.9736 30.9573 37.8033 30.6575L37.8021 30.6553C37.772 30.6022 37.741 30.5499 37.7089 30.4981L37.7072 30.4953L37.6891 30.4662L37.6885 30.4654C37.6761 30.4455 37.6635 30.4258 37.6507 30.4062L37.6478 30.4016L37.6312 30.3763L37.6281 30.3715C37.5949 30.3212 37.5608 30.2715 37.5259 30.2225L37.5232 30.2188L37.5041 30.1922L37.5025 30.19L37.4835 30.1641L37.48 30.1593L37.4636 30.1371L37.4581 30.1298C37.444 30.1109 37.4297 30.0921 37.4153 30.0734L37.4143 30.0721C37.4001 30.0537 37.3857 30.0354 37.3713 30.0171L37.3648 30.009L37.3504 29.991L37.341 29.9793L37.3266 29.9617L37.3207 29.9544L37.3038 29.9338L37.2977 29.9264L37.2819 29.9075L37.2747 29.899L37.2565 29.8776L37.2521 29.8725L37.2372 29.8552L37.2293 29.8459L37.2275 29.8438L37.2059 29.8192L37.2052 29.8183L37.2026 29.8154L37.1814 29.7915L37.1784 29.7883L37.1587 29.7663L37.1493 29.7561L37.136 29.7415L37.1256 29.7302L37.1112 29.7147L37.1025 29.7054L37.0872 29.6892L37.0773 29.6788L37.0642 29.665L37.0533 29.6536L37.038 29.6379L37.0306 29.6303L37.0278 29.6275L37.0049 29.6042L36.9986 29.5978L36.9923 29.5914L36.9906 29.5897L36.9859 29.585L36.9796 29.5787L36.9762 29.5754L36.9732 29.5724L36.9668 29.5661L36.9618 29.5611L36.9604 29.5598L36.954 29.5535L36.9475 29.5472L36.9411 29.5409L36.9346 29.5347L36.9326 29.5327L36.9282 29.5284L36.9218 29.5222L36.918 29.5186L36.9153 29.5159L36.9088 29.5098L36.9033 29.5045L36.9022 29.5036L36.8957 29.4974L36.8892 29.4912L36.8886 29.4906L36.8827 29.485L36.8761 29.4789L36.8695 29.4727L36.863 29.4666L36.8588 29.4628L36.8564 29.4605L36.8498 29.4544C36.7619 29.373 36.6711 29.2947 36.5775 29.2198C36.3885 29.0685 36.1885 28.9308 35.9786 28.8082L37.1694 26.7257ZM50 43.757H38.4129L37.4989 44.5708H33.5H29.5011L28.5871 43.757H17V45.0582C17 45.7739 17.5799 46.3594 18.2887 46.3594H48.7113C49.4201 46.3594 50 45.7738 50 45.0582V43.757ZM37.2006 24.5216L36.0644 26.5087H30.9356L29.7994 24.5216H37.2006ZM33.5 31.0442L34.1211 32.5011L35.6854 32.6474L34.505 33.6941L34.8506 35.2414L33.5 34.4313L32.1493 35.2413L32.4949 33.694L31.3145 32.6473L32.8788 32.501L33.5 31.0442ZM33.5 28.1381C32.9773 28.1381 32.4736 28.2198 32.0006 28.3712L31.5502 27.5834H35.4498L34.9994 28.3712C34.5263 28.2198 34.0226 28.1381 33.5 28.1381ZM28.5477 33.3549C28.6013 34.6525 29.1442 35.8225 29.995 36.6816C30.8921 37.5872 32.1313 38.1475 33.5 38.1475C34.8687 38.1475 36.108 37.5872 37.005 36.6816C37.8558 35.8225 38.3987 34.6525 38.4523 33.3549L41.7526 27.5834H45.6225V39.8047H21.3775V27.5834H25.2474L28.5477 33.3549ZM30.7477 30.3639C31.452 29.6528 32.4251 29.2129 33.5 29.2129C34.5749 29.2129 35.548 29.6527 36.2523 30.3639C36.9566 31.075 37.3923 32.0575 37.3923 33.1428C37.3923 34.2281 36.9566 35.2106 36.2523 35.9217C35.5479 36.6329 34.5748 37.0727 33.5 37.0727C32.4251 37.0727 31.452 36.6329 30.7477 35.9217C30.0433 35.2106 29.6077 34.2281 29.6077 33.1428C29.6077 32.0575 30.0434 31.075 30.7477 30.3639Z" fill="white"/>
</svg>
